# xmcd
#
# Track frame offsets:
#	150
#	15139
#	27230
#	41358
#	59365
#	76712
#	84804
#	101495
#	112776
#	141061
#	155368
#	169244
#	187238
#	199356
#	209266
#	222862
#	235257
#	247860
#	259900
#	268249
#	282353
#	291808
#	311024
#	321291
#
# Disc length: 4457 seconds
#
# Revision: 1
# Processed by: cddbd v1.5.2PL0 Copyright (c) Steve Scherf et al.
# Submitted via: EZCDAudioConverter 5.0.1.1
#
DISCID=4c116718
DTITLE=Various Artist - Jukebox: Music in the Films of Aki Kaurismäki cd1
DYEAR=2007
DGENRE=Stage and Screen
TTITLE0=Harri Marstio - Serenade
TTITLE1=The Renegades - Cadillac
TTITLE2=Olavi Virta - Sä et Kyyneltä Nää
TTITLE3=Harri Marstio - Älä Kiiruhda
TTITLE4=Melrose - Rich Little Bitch
TTITLE5=Timo Jämsen and Strangers - Yyterin Twist
TTITLE6=Georg Ots - Muuttuvat Laulut
TTITLE7=Topi Sorsakoski and Agents - Kunhan Palaan Takaisin
TTITLE8=Leningrad Cowboys - Thru' the Wire
TTITLE9=Rauli Badding Somerjoki - Valot
TTITLE10=Olavi Virta - Sateenkaaren tuolla puolen
TTITLE11=Leningrad Cowboys - The Cossack Song
TTITLE12=Leningrad Cowboys - Ballad of the Leningrad Cowboys
TTITLE13=Badding Rockers - Se Jokin Sinulla On
TTITLE14=Reijo Taipale - Satumaa
TTITLE15=Joe Strummer - Burning Lights
TTITLE16=Olavi Virta - Ennen Kuolemaa
TTITLE17=Carlos Gardel - Mi Buenos Aires Querido
TTITLE18=Anssi Tikanmäki - L' Influence du Bleu dans l'Art
TTITLE19=Toshitake Shinohara - Yukino Furu Machio
TTITLE20=Serge Reggiani - De Velours et de Soie
TTITLE21=Leningrad Cowboys - Those Were the Days
TTITLE22=The Blazers - Old Scars
TTITLE23=Georg Ots - Mustanmeren Valssi
EXTD=
EXTT0=
EXTT1=
EXTT2=
EXTT3=
EXTT4=
EXTT5=
EXTT6=
EXTT7=
EXTT8=
EXTT9=
EXTT10=
EXTT11=
EXTT12=
EXTT13=
EXTT14=
EXTT15=
EXTT16=
EXTT17=
EXTT18=
EXTT19=
EXTT20=
EXTT21=
EXTT22=
EXTT23=
PLAYORDER=
